<svg xmlns="http://www.w3.org/2000/svg" xmlns:xlink="http://www.w3.org/1999/xlink" width="1920" height="1626" viewBox="0 0 1920 1626">
  <defs>
    <filter id="Path_16" x="-818.168" y="61.947" width="2690.664" height="1045.562" filterUnits="userSpaceOnUse">
      <feOffset dy="3" input="SourceAlpha"/>
      <feGaussianBlur stdDeviation="3" result="blur"/>
      <feFlood flood-opacity="0.161"/>
      <feComposite operator="in" in2="blur"/>
      <feComposite in="SourceGraphic"/>
    </filter>
    <filter id="Path_14" x="-635.432" y="-1273.873" width="3149.205" height="3190.465" filterUnits="userSpaceOnUse">
      <feOffset input="SourceAlpha"/>
      <feGaussianBlur stdDeviation="10" result="blur-2"/>
      <feFlood flood-color="#a7a7a7" flood-opacity="0.361"/>
      <feComposite operator="in" in2="blur-2"/>
      <feComposite in="SourceGraphic"/>
    </filter>
    <filter id="Path_15" x="-682.578" y="-1273.707" width="2938.203" height="2866.727" filterUnits="userSpaceOnUse">
      <feOffset input="SourceAlpha"/>
      <feGaussianBlur stdDeviation="10" result="blur-3"/>
      <feFlood flood-color="#a7a7a7" flood-opacity="0.361"/>
      <feComposite operator="in" in2="blur-3"/>
      <feComposite in="SourceGraphic"/>
    </filter>
    <clipPath id="clip-Web_1920_18">
      <rect width="1920" height="1626"/>
    </clipPath>
  </defs>
  <g id="Web_1920_18" data-name="Web 1920 – 18" clip-path="url(#clip-Web_1920_18)">
    <g transform="matrix(1, 0, 0, 1, 0, 0)" filter="url(#Path_16)">
      <path id="Path_16-2" data-name="Path 16" d="M13258.612,7864.854s337.8-556.527,571.044-277.65,420.165,360.348,740.5,206.787,316.063-138.062,408.612-118.322,328.808,351.528,38.254,462.329-1359.654,64.587-1454.765-118.392-1640.812-227.948-498.27-343.937,1348.592-76.6,1595.3,189.185-109.274,591.188,127.088,652.794,638.173-225.248,394.148-251.791-1441.437,188.844-1921.916,251.791-665.03-498.041-665.03-498.041" transform="translate(-13398 -7436)" fill="none" stroke="#467ddb" stroke-width="10" opacity="0.318"/>
    </g>
    <g transform="matrix(1, 0, 0, 1, 0, 0)" filter="url(#Path_14)">
      <path id="Path_14-2" data-name="Path 14" d="M13193.922,6786.061c326.573-148.69,530.387-289.657,677.966-414.868,323.732-274.664,380.616-475.439,869.04-522.54,711.989-68.659,734.332-344.428,606.352,150.38s-782,739.827-1021.834,1139.681-154.923,323.523-264.424,417.344-908.047,216.864-908.047,216.864-452.7-317.67,85.208-347.459,552.613,194.456,894.354,347.459,478.524,289.952,489.714,299.613" transform="translate(-408.22 16039.31) rotate(-111)" fill="none" stroke="#c83c2c" stroke-width="10" opacity="0.241"/>
    </g>
    <g transform="matrix(1, 0, 0, 1, 0, 0)" filter="url(#Path_15)">
      <path id="Path_15-2" data-name="Path 15" d="M13171,6623.931c292.4-126.285,474.895-246.012,607.031-352.355,289.861-233.277,340.793-403.8,778.115-443.8,637.494-58.313,657.5-292.529,542.91,127.721s-700.186,628.349-914.922,967.952-138.715,274.774-236.758,354.458-813.039,184.188-813.039,184.188-405.338-269.8,76.291-295.1,494.795,165.155,800.781,295.1,428.457,246.261,438.477,254.467" transform="matrix(-0.88, 0.47, -0.47, -0.88, 16355.51, -515.85)" fill="none" stroke="#f5c944" stroke-width="10" opacity="0.241"/>
    </g>
  </g>
</svg>
